<svg xmlns="http://www.w3.org/2000/svg" width="160" height="167" viewBox="0 0 160 167" version="1.1"><path d="M 75.238 47.250 C 74.684 47.938, 73.918 49.962, 73.536 51.750 L 72.841 55 62.621 55 C 56.005 55, 51.977 55.423, 51.200 56.200 C 50.342 57.058, 50 63.430, 50 78.536 L 50 99.672 46.309 104.409 C 43.296 108.277, 42.883 109.313, 44.059 110.058 C 46.574 111.649, 50.911 111.079, 56.033 108.483 L 61 105.966 61 98.509 C 61 91.242, 61.076 91.012, 63.987 89.507 C 68.726 87.056, 73.950 82.018, 76.079 77.845 C 78.395 73.305, 79.186 73.111, 81.067 76.625 C 81.839 78.068, 85.515 82.067, 89.236 85.512 L 96 91.775 96 97.994 C 96 103.255, 95.756 104.120, 94.418 103.607 C 93.548 103.273, 91.073 103, 88.918 103 C 85.107 103, 85 102.904, 85 99.500 C 85 96.333, 85.267 96, 87.800 96 C 91.008 96, 93 94.398, 93 91.819 C 93 89.330, 90.232 88.875, 77.107 89.210 C 67.382 89.457, 65.551 89.765, 64.607 91.309 C 63.201 93.607, 66.050 96, 70.191 96 C 72.726 96, 73 96.336, 73 99.448 L 73 102.895 67.759 103.198 C 63.561 103.440, 62.448 103.874, 62.161 105.380 C 61.964 106.414, 62.410 107.645, 63.152 108.115 C 63.893 108.585, 71.082 108.976, 79.128 108.985 C 90.195 108.996, 94.028 108.672, 94.874 107.651 C 95.799 106.538, 96.856 106.730, 100.944 108.752 C 105.091 110.805, 106.713 111.090, 110.947 110.507 C 113.726 110.125, 116 109.463, 116 109.035 C 116 108.608, 114.414 107.187, 112.475 105.879 C 110.536 104.571, 108.756 102.600, 108.519 101.500 C 108.282 100.400, 107.933 89.907, 107.743 78.182 C 107.464 60.928, 107.122 56.689, 105.949 55.947 C 105.152 55.443, 100.386 55.024, 95.358 55.015 C 86.224 55, 86.216 54.998, 85.530 52.250 C 85.153 50.737, 84.134 48.712, 83.267 47.750 C 81.439 45.722, 76.706 45.427, 75.238 47.250 M 63 71 C 63 74.196, 63.855 74.745, 65.800 72.800 C 67.733 70.867, 67.255 68, 65 68 C 63.444 68, 63 68.667, 63 71 M 90 69.066 C 90 71.099, 92.078 74, 93.535 74 C 95.074 74, 95.415 72.244, 94.393 69.582 C 93.718 67.823, 90 67.387, 90 69.066" stroke="none" fill="#ec1e25" fill-rule="evenodd"/><path d="M 45 16.787 C 45 17.161, 48.686 25.461, 53.190 35.233 L 61.380 53 66.102 53 L 70.824 53 71.499 49.004 C 72.670 42.077, 79.731 38.648, 83.810 43.026 C 84.848 44.140, 86.294 46.862, 87.024 49.074 C 88.338 53.055, 88.397 53.092, 92.875 52.798 L 97.399 52.500 101.719 41.701 C 104.094 35.761, 107.840 27.934, 110.043 24.308 C 112.246 20.682, 113.868 17.535, 113.647 17.314 C 113.426 17.093, 108.578 17.866, 102.873 19.032 C 82.960 23.103, 64.224 22.722, 50.397 17.965 C 47.429 16.943, 45 16.413, 45 16.787 M 22.125 31.856 L 14.750 40.043 15.236 45.102 C 15.673 49.649, 16.302 50.748, 21.458 55.958 C 25.117 59.655, 27.067 62.413, 26.844 63.573 C 26.651 64.573, 23.191 67.729, 19.155 70.587 C 15.119 73.445, 11.341 76.259, 10.759 76.841 C 10.015 77.585, 12.564 80.911, 19.350 88.048 C 24.658 93.630, 29 98.833, 29 99.611 C 29 100.389, 28.100 104.273, 27 108.243 C 25.502 113.647, 25 118.532, 25 127.695 C 25 138.819, 25.178 140.025, 26.958 140.978 C 29.125 142.138, 28.694 143.199, 32.997 126.123 C 34.158 121.516, 37.049 113.866, 39.422 109.123 C 46.221 95.533, 46.345 96.897, 37.503 88.003 L 29.794 80.249 35.808 76.942 C 42.283 73.383, 43 72.052, 43 63.598 C 43 60.287, 42.424 58.940, 40.159 56.952 C 36.868 54.065, 31.068 38.022, 30.095 29.117 L 29.500 23.670 22.125 31.856 M 130 28.866 C 130 35.804, 123.853 53.865, 120.514 56.740 C 118.096 58.821, 117.933 59.488, 118.206 66.173 L 118.500 73.367 123.730 76.433 C 126.606 78.120, 129.016 79.880, 129.084 80.345 C 129.153 80.810, 126.021 84.704, 122.123 89 L 115.037 96.809 120.129 107.155 C 123.398 113.798, 126.315 121.794, 128.282 129.500 C 129.966 136.100, 131.488 141.685, 131.666 141.911 C 131.843 142.136, 132.890 141.504, 133.994 140.506 C 135.751 138.916, 135.999 137.436, 135.993 128.595 C 135.987 119.595, 133.980 107.257, 131.464 100.753 C 130.968 99.471, 132.613 97.073, 137.644 91.747 C 141.415 87.754, 145.967 82.889, 147.761 80.935 L 151.022 77.382 143.761 72.306 C 139.767 69.514, 135.652 66.288, 134.615 65.137 C 132.745 63.061, 132.778 62.992, 138.798 56.556 C 143.766 51.246, 144.990 49.251, 145.543 45.559 C 146.284 40.624, 146.878 41.671, 136.559 29.722 C 133.842 26.575, 131.254 24, 130.809 24 C 130.364 24, 130 26.190, 130 28.866 M 76.250 115.723 C 74.463 115.945, 73 116.228, 73 116.352 C 73 116.476, 73.900 118.342, 75 120.500 C 76.100 122.658, 77 125.228, 77 126.211 C 77 129.444, 80.680 128.352, 81.367 124.916 C 81.706 123.220, 82.874 120.581, 83.962 119.053 C 86.843 115.007, 85.767 114.542, 76.250 115.723 M 57 134.034 C 55.703 134.902, 55.766 135.241, 57.466 136.537 C 59.302 137.937, 59.202 137.993, 55.966 137.386 C 53.105 136.849, 52.718 136.968, 53.750 138.068 C 55.425 139.853, 55.327 141, 53.500 141 C 52.675 141, 52 141.450, 52 142 C 52 142.550, 52.620 143, 53.378 143 C 54.135 143, 55.373 143.749, 56.128 144.664 C 57.377 146.178, 57.290 146.216, 55.164 145.083 C 53.880 144.398, 52.597 144.069, 52.314 144.352 C 51.473 145.194, 53.005 147, 54.559 147 C 55.352 147, 56 147.802, 56 148.782 C 56 150.266, 56.920 150.578, 61.500 150.644 C 66.696 150.719, 68.527 149.844, 65.750 148.612 C 65.063 148.308, 65.353 148.158, 66.396 148.279 C 67.439 148.401, 68.489 147.938, 68.730 147.250 C 68.970 146.563, 68.679 146, 68.083 146 C 67.487 146, 67 145.550, 67 145 C 67 144.450, 67.506 144.112, 68.125 144.250 C 68.744 144.387, 69.456 143.938, 69.708 143.250 C 69.960 142.563, 69.567 141.993, 68.833 141.985 C 67.758 141.972, 67.750 141.811, 68.789 141.152 C 69.774 140.526, 69.824 139.668, 69.002 137.504 C 68.184 135.353, 67.647 134.953, 66.763 135.837 C 65.340 137.260, 63.646 137.382, 64.500 136 C 65.581 134.251, 63.978 132.773, 62.411 134.074 C 61.397 134.916, 61 134.929, 61 134.122 C 61 132.737, 59.005 132.693, 57 134.034 M 94.585 138.626 C 93.163 141.170, 92 143.426, 92 143.638 C 92 143.850, 93.912 143.790, 96.250 143.505 L 100.500 142.987 97.250 144.496 C 93.703 146.144, 92.765 148.556, 96 147.710 C 98.192 147.137, 98.710 148.890, 96.887 150.713 C 96.275 151.325, 96.059 152.286, 96.407 152.849 C 96.808 153.498, 98.951 153.035, 102.270 151.582 C 105.146 150.322, 108.063 149.488, 108.750 149.729 C 109.438 149.970, 110 149.484, 110 148.651 C 110 147.817, 109.100 146.849, 108 146.500 C 105.644 145.752, 105.298 143, 107.559 143 C 108.416 143, 108.860 142.583, 108.546 142.074 C 108.194 141.505, 106.725 141.505, 104.743 142.074 C 100.108 143.403, 100.008 143.171, 104.250 140.932 C 108.256 138.817, 109.153 137, 106.191 137 C 105.196 137, 103.509 136.339, 102.441 135.532 C 99.145 133.039, 97.302 133.765, 94.585 138.626 M 79 138.259 C 79 138.952, 79.879 140.068, 80.954 140.739 C 83.610 142.398, 84.996 140.202, 82.462 138.348 C 80.156 136.662, 79 136.633, 79 138.259 M 97.931 138.584 C 97.262 139.389, 96.970 140.304, 97.282 140.615 C 98.054 141.387, 102 140.069, 102 139.040 C 102 137.452, 99.136 137.132, 97.931 138.584 M 77.902 142.750 C 77.598 145.076, 78.028 154.362, 78.461 154.794 C 79.160 155.493, 84.736 155.281, 85.987 154.508 C 87.448 153.605, 87.235 151, 85.700 151 C 84.985 151, 83.841 151.559, 83.158 152.242 C 81.192 154.208, 79.827 151.202, 80.438 146.250 C 80.847 142.927, 80.639 142, 79.481 142 C 78.666 142, 77.956 142.338, 77.902 142.750 M 84.517 143.972 C 83.833 145.079, 86.770 150, 88.115 150 C 89.438 150, 89.123 146.746, 87.608 144.750 C 86.098 142.761, 85.378 142.580, 84.517 143.972 M 62 145 C 62 145.550, 62.450 146, 63 146 C 63.550 146, 64 145.550, 64 145 C 64 144.450, 63.550 144, 63 144 C 62.450 144, 62 144.450, 62 145 M 74 145.941 C 74 147.009, 73.550 148.160, 73 148.500 C 71.554 149.394, 71.772 151, 73.339 151 C 74.601 151, 77 147.037, 77 144.953 C 77 144.429, 76.325 144, 75.500 144 C 74.675 144, 74 144.873, 74 145.941 M 101.676 146.401 C 101.352 147.245, 101.487 148.183, 101.975 148.484 C 103.282 149.292, 104.391 146.991, 103.246 145.846 C 102.606 145.206, 102.061 145.398, 101.676 146.401" stroke="none" fill="#2d3494" fill-rule="evenodd"/></svg>